# xmcd
#
# Track frame offsets: 
#        150
#        13080
#        38787
#        55162
#        69147
#        84267
#        98372
#        116762
#        133190
#        154817
#        165200
#        180210
#        192605
#        208965
#        222522
#        252335
#        266090
#        283800
#        310747
#        325967
#
# Disc length: 4658 seconds
#
# Revision: 5
# Processed by: cddbd v1.5.2PL0 Copyright (c) Steve Scherf et al.
# Submitted via: ExactAudioCopyFreeDBPlugin 1.0
#
DISCID=1c123014
DTITLE=Muddy Waters - Fathers and Sons
DYEAR=2001
DGENRE=Blues
TTITLE0=All Aboard
TTITLE1=Mean Disposition
TTITLE2=Blow Wind Blow
TTITLE3=Can't Lose What You Ain't Never Had
TTITLE4=Walking Thru the Park
TTITLE5=Forty Days and Forty Nights
TTITLE6=Standin' Round Cryin'
TTITLE7=I'm Ready
TTITLE8=Twenty Four Hours
TTITLE9=Sugar Sweet
TTITLE10=Country Boy (previously unreleased)
TTITLE11=I Love the Life I Live (I Live the Life I Love) (previously u
TTITLE11=nreleased)
TTITLE12=Oh Yeah (previously unreleased)
TTITLE13=I Feel So Good (previously unreleased)
TTITLE14=Long Distance Call (live)
TTITLE15=Baby, Please Don't Go (live)
TTITLE16=Honey Bee (live)
TTITLE17=The Same Thing (live)
TTITLE18=Got My Mojo Working, Part One (live)
TTITLE19=Got My Mojo Working, Part Two (live)
EXTD=Muddy Waters - Vocals and Guitar, Otis Spann - Piano, Michael Bloom
EXTD=field - Guitar, Paul Butterfield - Harmonica, Donald "Duck" Dunn 
EXTD=Bass Guitar (except on "All Aboard"), Sam Lay - Drums (except o
EXTD=n "Got My Mojo Working, Part Two), Buddy Miles - Drums ("Got My M
EXTD=ojo Working, Part Two" only), Jeff Carp - Chromatic Harmonica ("A
EXTD=ll Aboard" only), Paul Asbell - Rhythm Guitar ("Walking Thru The 
EXTD=Park," "Forty Days And Forty Nights," and "Sugar Sweet" only), Ph
EXTD=il Upchurch - Bass Guitar ("All Aboard" only). Produced by Norman
EXTD=Dayron. Tracks 1 through 14 recorded Chicago, Illinois, April 21
EXTD=, 22, and 23, 1969. Engineer: Ron Malo. Tracks 15 through 20 reco
EXTD=rded live in concert at the Super Cosmic Joy-Scout Jamboree, Chic
EXTD=ago, Illinois, April 24, 1969. Engineer: Reice Hamel. Original Al
EXTD=bum Supervision: Marshall Chess. Original Production Assistance: 
EXTD=Joe McDermand, Loren Coleman and Sonny Woods. Advice: Willie Dixo
EXTD=n, Phil Chess, and Peter J. Welding. Original Album Design: Daily
EXTD=Planet. Illistration: Don Wilson. Fathers And Sons originally re
EXTD=leased as Chess double album LPS-127, August 18, 1969. Reissue Pr
EXTD=oduced by Andy McKaie. Digitally remastered by Erick Labson, Univ
EXTD=ersal Mastering - West, No. Hollywood, CA. MCA/CHESS 088 112 648-
EXTD=2.
EXTT0=
EXTT1=
EXTT2=
EXTT3=
EXTT4=
EXTT5=
EXTT6=
EXTT7=
EXTT8=
EXTT9=
EXTT10=
EXTT11=
EXTT12=
EXTT13=
EXTT14=
EXTT15=
EXTT16=
EXTT17=
EXTT18=
EXTT19=
PLAYORDER=
